<svg xmlns="http://www.w3.org/2000/svg" width="26" height="28" fill="none">
  <g filter="url(#a)">
    <path fill="#2F2F37" fill-rule="evenodd" d="M4.6 6a1.2 1.2 0 0 1 1.2-1.2h14.4a1.2 1.2 0 1 1 0 2.4H5.8A1.2 1.2 0 0 1 4.6 6Zm0 6a1.2 1.2 0 0 1 1.2-1.2h14.4a1.2 1.2 0 1 1 0 2.4H5.8A1.2 1.2 0 0 1 4.6 12Zm0 6a1.2 1.2 0 0 1 1.2-1.2h14.4a1.2 1.2 0 1 1 0 2.4H5.8A1.2 1.2 0 0 1 4.6 18Z" clip-rule="evenodd"/>
  </g>
  <defs>
    <filter id="a" width="32" height="32" x="-3" y="0" color-interpolation-filters="sRGB" filterUnits="userSpaceOnUse">
      <feFlood flood-opacity="0" result="BackgroundImageFix"/>
      <feColorMatrix in="SourceAlpha" result="hardAlpha" values="0 0 0 0 0 0 0 0 0 0 0 0 0 0 0 0 0 0 127 0"/>
      <feOffset dy="4"/>
      <feGaussianBlur stdDeviation="2"/>
      <feComposite in2="hardAlpha" operator="out"/>
      <feColorMatrix values="0 0 0 0 0 0 0 0 0 0 0 0 0 0 0 0 0 0 0.25 0"/>
      <feBlend in2="BackgroundImageFix" result="effect1_dropShadow_570573_1689"/>
      <feBlend in="SourceGraphic" in2="effect1_dropShadow_570573_1689" result="shape"/>
    </filter>
  </defs>
</svg>
